<svg xmlns="http://www.w3.org/2000/svg" width="109" height="40" viewBox="0 0 109 40"><defs><clipPath id="a"><path d="M33.91 31.51l-13.7 7.91a4.17 4.17 0 0 1-4.17 0L2.21 31.51A4.29 4.29 0 0 1 0 27.9V12.08a4.29 4.29 0 0 1 2.21-3.61L16 .56a4.23 4.23 0 0 1 4.2 0l13.7 7.91a4.19 4.19 0 0 1 2.1 3.61V27.9a4.17 4.17 0 0 1-2.09 3.61z" fill="#8089ff"/></clipPath><clipPath id="b"><path d="M33.91 31.51l-13.7 7.91a4.17 4.17 0 0 1-4.17 0L2.21 31.51A4.29 4.29 0 0 1 0 27.9V12.08a4.29 4.29 0 0 1 2.21-3.61L16 .56a4.23 4.23 0 0 1 4.2 0l13.7 7.91a4.19 4.19 0 0 1 2.1 3.61V27.9a4.17 4.17 0 0 1-2.09 3.61z" fill="none"/></clipPath><radialGradient id="c" data-name="Dégradé sans nom 10" cx="17.79" cy="19.53" r="16.89" gradientTransform="matrix(.88 .48 -.87 1.57 19.16 -19.76)" gradientUnits="userSpaceOnUse"><stop offset=".37" stop-opacity="0"/><stop offset="1"/></radialGradient></defs><path d="M33.91 31.51l-13.7 7.91a4.17 4.17 0 0 1-4.17 0L2.21 31.51A4.29 4.29 0 0 1 0 27.9V12.08a4.29 4.29 0 0 1 2.21-3.61L16 .56a4.23 4.23 0 0 1 4.2 0l13.7 7.91a4.19 4.19 0 0 1 2.1 3.61V27.9a4.17 4.17 0 0 1-2.09 3.61z" fill="#8089ff"/><g clip-path="url(#a)" fill="#8089ff"><path d="M17.47 2.1L4.24 12.75a4.48 4.48 0 0 0-1.62 4.18l2.61 16.78a4.47 4.47 0 0 0 .15.64L8.48 37a4.17 4.17 0 0 0 4.11.74l14.88-5.37a4.17 4.17 0 0 0 2.69-3.19l2.79-15.57a4.17 4.17 0 0 0-1.42-3.92l-9.84-8.3a4.47 4.47 0 0 0-4.22.71z"/><path d="M17.47 2.1L4.24 12.75a4.48 4.48 0 0 0-1.62 4.18l2.61 16.78a4.47 4.47 0 0 0 .15.64L8.48 37a4.17 4.17 0 0 0 4.11.74l14.88-5.37a4.17 4.17 0 0 0 2.69-3.19l2.79-15.57a4.17 4.17 0 0 0-1.42-3.92l-9.84-8.3a4.47 4.47 0 0 0-4.22.71z" opacity=".25"/><path d="M-3.61 26.76l9 7.59a4.47 4.47 0 0 1-.15-.64L2.62 16.93a4.48 4.48 0 0 1 1.62-4.18L17.47 2.1a4.47 4.47 0 0 1 4.22-.75l-2.25-1.9a4.17 4.17 0 0 0-4.11-.74L.45 4.08a4.17 4.17 0 0 0-2.69 3.19L-5 22.84a4.17 4.17 0 0 0 1.39 3.92z"/><path d="M32.94 13.57l-2.79 15.57a4.17 4.17 0 0 1-2.69 3.19L12.59 37.7a4.17 4.17 0 0 1-4.11-.7l-3.1-2.61A4.48 4.48 0 0 0 8 37.2l15.84 6.13a4.48 4.48 0 0 0 4.43-.69L41.53 32a4.48 4.48 0 0 0 1.62-4.18L40.54 11a4.48 4.48 0 0 0-2.81-3.49l-15.84-6.1-.21-.06 9.84 8.3a4.17 4.17 0 0 1 1.42 3.92z"/></g><path d="M53.43 26a5.33 5.33 0 0 1-2-.36 4.25 4.25 0 0 1-1.55-1 4.74 4.74 0 0 1-1-1.7 7 7 0 0 1-.35-2.32 6.3 6.3 0 0 1 .4-2.32A5 5 0 0 1 50 16.55a4.55 4.55 0 0 1 1.57-1.05 5.12 5.12 0 0 1 1.92-.36 6.85 6.85 0 0 1 1.16.09 7.09 7.09 0 0 1 .9.21 4.29 4.29 0 0 1 .62.24l.33.18-.42 1.2a2.39 2.39 0 0 0-.39-.19l-.58-.21a5.21 5.21 0 0 0-.71-.17 4.41 4.41 0 0 0-.77-.07 3.72 3.72 0 0 0-1.48.28 3.07 3.07 0 0 0-1.12.83 3.74 3.74 0 0 0-.71 1.31 5.67 5.67 0 0 0-.25 1.73 6.18 6.18 0 0 0 .22 1.69 3.71 3.71 0 0 0 .71 1.32 2.92 2.92 0 0 0 1.09.85 3.61 3.61 0 0 0 1.52.3 5.57 5.57 0 0 0 1.66-.21 7.22 7.22 0 0 0 1-.37l.38 1.2a2.16 2.16 0 0 1-.38.19 5.15 5.15 0 0 1-.67.22 8.59 8.59 0 0 1-2.17.24zm13.33-1.49v1.26h-6.25V15.38H62v9.13h4.8zm3.78-9.13H72v10.39h-1.46V15.38zm6.28 10.39V15.38h6.34v1.25h-4.88v3.09h4.35v1.22h-4.35v3.6h5.27v1.25h-6.73zm17.94 0L94 24.53q-.43-.69-.92-1.43t-1-1.51q-.53-.77-1.06-1.48t-1-1.34q-.49-.63-.91-1.11v8.11h-1.47V15.38h1.15q.7.75 1.51 1.75t1.59 2.05q.79 1.06 1.48 2.08t1.18 1.82v-7.7H96v10.39h-1.24zm12.99-10.39v1.26h-3.27v9.13H103v-9.13h-3.24v-1.26h8z" fill="#fff"/><g clip-path="url(#b)"><path d="M17.47 2.1L4.24 12.75a4.48 4.48 0 0 0-1.62 4.18l2.61 16.78a4.47 4.47 0 0 0 .15.64L8.48 37a4.17 4.17 0 0 0 4.11.74l14.88-5.37a4.17 4.17 0 0 0 2.69-3.19l2.79-15.57a4.17 4.17 0 0 0-1.42-3.92l-9.84-8.3a4.47 4.47 0 0 0-4.22.71z" fill="#8089ff"/><path d="M17.47 2.1L4.24 12.75a4.48 4.48 0 0 0-1.62 4.18l2.61 16.78a4.47 4.47 0 0 0 .15.64L8.48 37a4.17 4.17 0 0 0 4.11.74l14.88-5.37a4.17 4.17 0 0 0 2.69-3.19l2.79-15.57a4.17 4.17 0 0 0-1.42-3.92l-9.84-8.3a4.47 4.47 0 0 0-4.22.71z" fill="url(#c)" opacity=".25"/><path d="M-3.61 26.76l9 7.59a4.47 4.47 0 0 1-.15-.64L2.62 16.93a4.48 4.48 0 0 1 1.62-4.18L17.47 2.1a4.47 4.47 0 0 1 4.22-.75l-2.25-1.9a4.17 4.17 0 0 0-4.11-.74L.45 4.08a4.17 4.17 0 0 0-2.69 3.19L-5 22.84a4.17 4.17 0 0 0 1.39 3.92z" fill="#8089ff"/><path d="M32.94 13.57l-2.79 15.57a4.17 4.17 0 0 1-2.69 3.19L12.59 37.7a4.17 4.17 0 0 1-4.11-.7l-3.1-2.61A4.48 4.48 0 0 0 8 37.2l15.84 6.13a4.48 4.48 0 0 0 4.43-.69L41.53 32a4.48 4.48 0 0 0 1.62-4.18L40.54 11a4.48 4.48 0 0 0-2.81-3.49l-15.84-6.1-.21-.06 9.84 8.3a4.17 4.17 0 0 1 1.42 3.92z" fill="#8089ff"/></g><path d="M20.84 27h2.78c-.23 0-3.08-5.16-3.35-5.5a4.28 4.28 0 0 0 1.88-1.38 3.79 3.79 0 0 0 .65-2.3 4.1 4.1 0 0 0-1.62-3.55A8.29 8.29 0 0 0 16.53 13H13c-.28 0 0 .52 0 .79V27h3V16h.9a4.23 4.23 0 0 1 2.11.4 1.44 1.44 0 0 1 .7 1.4 1.83 1.83 0 0 1-.76 1.61 5 5 0 0 1-2.48.58c-.44 0-.59.07-.41.49l1.1 1.69c.22.27 2.14 3.29 2.86 4.46a1.07 1.07 0 0 0 .82.37z" fill="#fff"/></svg>