<svg xmlns="http://www.w3.org/2000/svg" width="106" height="40" viewBox="0 0 106 40"><defs><clipPath id="a"><path d="M33.81 8.47L20.07.56a4.22 4.22 0 0 0-4.2 0L2.13 8.47A4.21 4.21 0 0 0 0 12.08V27.9a4.2 4.2 0 0 0 2.12 3.61l13.71 7.91a4.19 4.19 0 0 0 4.18 0l13.8-7.91A4.27 4.27 0 0 0 36 27.9V12.08a4.27 4.27 0 0 0-2.19-3.61z" fill="#eb8244"/></clipPath><clipPath id="b"><path d="M33.81 8.47L20.07.56a4.22 4.22 0 0 0-4.2 0L2.13 8.47A4.21 4.21 0 0 0 0 12.08V27.9a4.2 4.2 0 0 0 2.12 3.61l13.71 7.91a4.19 4.19 0 0 0 4.18 0l13.8-7.91A4.27 4.27 0 0 0 36 27.9V12.08a4.27 4.27 0 0 0-2.19-3.61z" fill="none"/></clipPath><radialGradient id="c" data-name="Dégradé sans nom 10" cx="17.59" cy="20.45" r="19.23" gradientTransform="rotate(-30.05 -.032 25.193) scale(1 1.46)" gradientUnits="userSpaceOnUse"><stop offset=".37" stop-opacity="0"/><stop offset="1"/></radialGradient></defs><path d="M33.81 8.47L20.07.56a4.22 4.22 0 0 0-4.2 0L2.13 8.47A4.21 4.21 0 0 0 0 12.08V27.9a4.2 4.2 0 0 0 2.12 3.61l13.71 7.91a4.19 4.19 0 0 0 4.18 0l13.8-7.91A4.27 4.27 0 0 0 36 27.9V12.08a4.27 4.27 0 0 0-2.19-3.61z" fill="#eb8244"/><g clip-path="url(#a)" fill="#eb8244"><path d="M17.27 37.88L4 27.23a4.48 4.48 0 0 1-1.62-4.18L5 6.27a4.47 4.47 0 0 1 .15-.64L8.28 3a4.17 4.17 0 0 1 4.11-.74l14.88 5.39A4.17 4.17 0 0 1 30 10.84l2.79 15.57a4.17 4.17 0 0 1-1.42 3.92l-9.84 8.3a4.47 4.47 0 0 1-4.26-.75z"/><path d="M17.27 37.88L4 27.23a4.48 4.48 0 0 1-1.62-4.18L5 6.27a4.47 4.47 0 0 1 .15-.64L8.28 3a4.17 4.17 0 0 1 4.11-.74l14.88 5.39A4.17 4.17 0 0 1 30 10.84l2.79 15.57a4.17 4.17 0 0 1-1.42 3.92l-9.84 8.3a4.47 4.47 0 0 1-4.26-.75z" opacity=".25"/><path d="M-3.81 13.22l9-7.59a4.47 4.47 0 0 0-.19.64L2.43 23.05A4.48 4.48 0 0 0 4 27.23l13.27 10.65a4.47 4.47 0 0 0 4.22.75l-2.25 1.9a4.17 4.17 0 0 1-4.11.74L.26 35.9a4.17 4.17 0 0 1-2.69-3.19l-2.79-15.57a4.17 4.17 0 0 1 1.41-3.92z"/><path d="M32.75 26.41L30 10.84a4.17 4.17 0 0 0-2.69-3.19L12.39 2.28A4.17 4.17 0 0 0 8.28 3L5.19 5.63a4.48 4.48 0 0 1 2.65-2.85l15.84-6.13a4.48 4.48 0 0 1 4.43.69L41.34 8A4.48 4.48 0 0 1 43 12.16l-2.65 16.79a4.48 4.48 0 0 1-2.81 3.49L21.7 38.57l-.21.06 9.84-8.3a4.17 4.17 0 0 0 1.42-3.92z"/></g><path d="M53.45 26.17a5.33 5.33 0 0 1-2-.36 4.25 4.25 0 0 1-1.55-1 4.74 4.74 0 0 1-1-1.7 7 7 0 0 1-.35-2.32 6.3 6.3 0 0 1 .4-2.32A5 5 0 0 1 50 16.72a4.55 4.55 0 0 1 1.57-1.05 5.12 5.12 0 0 1 1.92-.36 6.85 6.85 0 0 1 1.16.09 7.09 7.09 0 0 1 .9.21 4.29 4.29 0 0 1 .62.24l.37.15-.42 1.2a2.39 2.39 0 0 0-.39-.2l-.58-.21a5.21 5.21 0 0 0-.71-.17 4.41 4.41 0 0 0-.77-.07 3.72 3.72 0 0 0-1.48.28 3.07 3.07 0 0 0-1.12.83 3.74 3.74 0 0 0-.71 1.34 5.67 5.67 0 0 0-.25 1.73 6.18 6.18 0 0 0 .22 1.69 3.71 3.71 0 0 0 .67 1.33 2.92 2.92 0 0 0 1.09.85 3.61 3.61 0 0 0 1.52.3 5.57 5.57 0 0 0 1.66-.21 7.22 7.22 0 0 0 1-.37l.38 1.2a2.16 2.16 0 0 1-.38.19 5.15 5.15 0 0 1-.67.22 8.59 8.59 0 0 1-2.15.24zm13.34-1.49v1.26h-6.26V15.55H62v9.13h4.8zm2.68-3.94a6.45 6.45 0 0 1 .4-2.36 4.86 4.86 0 0 1 1.08-1.7 4.46 4.46 0 0 1 1.59-1 5.38 5.38 0 0 1 1.93-.35 5.21 5.21 0 0 1 1.9.35 4.42 4.42 0 0 1 1.57 1 4.91 4.91 0 0 1 1.06 1.7 6.46 6.46 0 0 1 .4 2.36 6.46 6.46 0 0 1-.4 2.36 4.92 4.92 0 0 1-1.07 1.7 4.42 4.42 0 0 1-1.57 1 5.21 5.21 0 0 1-1.9.35 5.38 5.38 0 0 1-1.93-.35 4.46 4.46 0 0 1-1.59-1 4.86 4.86 0 0 1-1.08-1.7 6.45 6.45 0 0 1-.39-2.36zm1.53 0a5.77 5.77 0 0 0 .24 1.72 3.84 3.84 0 0 0 .68 1.31 3 3 0 0 0 1.08.83 3.4 3.4 0 0 0 1.43.29 3.35 3.35 0 0 0 1.43-.29 3 3 0 0 0 1.07-.83 3.85 3.85 0 0 0 .68-1.31 6.27 6.27 0 0 0 0-3.43 3.84 3.84 0 0 0-.68-1.31 3 3 0 0 0-1.07-.83 3.35 3.35 0 0 0-1.43-.29 3.4 3.4 0 0 0-1.43.29 3 3 0 0 0-1.08.83 3.83 3.83 0 0 0-.68 1.28 5.78 5.78 0 0 0-.24 1.74zm16.68 5.43a4.55 4.55 0 0 1-1.77-.31 3.31 3.31 0 0 1-1.23-.86 3.5 3.5 0 0 1-.71-1.3 5.42 5.42 0 0 1-.23-1.62v-6.53h1.45v6.36a3.15 3.15 0 0 0 .69 2.26 2.4 2.4 0 0 0 1.8.7 2.86 2.86 0 0 0 1-.17 2 2 0 0 0 .79-.53 2.45 2.45 0 0 0 .53-.92 4.44 4.44 0 0 0 .18-1.34v-6.36h1.45v6.52a5.44 5.44 0 0 1-.23 1.62 3.48 3.48 0 0 1-.72 1.3 3.39 3.39 0 0 1-1.23.86 4.5 4.5 0 0 1-1.77.32zm17.23-5.43a6 6 0 0 1-.42 2.35 4.34 4.34 0 0 1-1.18 1.65 5 5 0 0 1-1.83 1 8 8 0 0 1-2.34.32q-.63 0-1.39-.05a8.16 8.16 0 0 1-1.37-.2V15.7a8.23 8.23 0 0 1 1.37-.2q.76-.05 1.39-.05a8 8 0 0 1 2.34.32 5 5 0 0 1 1.83 1 4.35 4.35 0 0 1 1.18 1.65 6 6 0 0 1 .42 2.32zm-5.65 4a4.11 4.11 0 0 0 3.09-1.06 4.09 4.09 0 0 0 1-3 4.09 4.09 0 0 0-1-3 4.11 4.11 0 0 0-3.09-1.06h-1.47v7.95h.47z" fill="#1b252f"/><g clip-path="url(#b)"><path d="M17.27 37.88L4 27.23a4.48 4.48 0 0 1-1.62-4.18L5 6.27a4.47 4.47 0 0 1 .15-.64L8.28 3a4.17 4.17 0 0 1 4.11-.74l14.88 5.39A4.17 4.17 0 0 1 30 10.84l2.79 15.57a4.17 4.17 0 0 1-1.42 3.92l-9.84 8.3a4.47 4.47 0 0 1-4.26-.75z" fill="#eb8244"/><path d="M17.27 37.88L4 27.23a4.48 4.48 0 0 1-1.62-4.18L5 6.27a4.47 4.47 0 0 1 .15-.64L8.28 3a4.17 4.17 0 0 1 4.11-.74l14.88 5.39A4.17 4.17 0 0 1 30 10.84l2.79 15.57a4.17 4.17 0 0 1-1.42 3.92l-9.84 8.3a4.47 4.47 0 0 1-4.26-.75z" fill="url(#c)" opacity=".25"/><path d="M-3.81 13.22l9-7.59a4.47 4.47 0 0 0-.19.64L2.43 23.05A4.48 4.48 0 0 0 4 27.23l13.27 10.65a4.47 4.47 0 0 0 4.22.75l-2.25 1.9a4.17 4.17 0 0 1-4.11.74L.26 35.9a4.17 4.17 0 0 1-2.69-3.19l-2.79-15.57a4.17 4.17 0 0 1 1.41-3.92z" fill="#eb8244"/><path d="M32.75 26.41L30 10.84a4.17 4.17 0 0 0-2.69-3.19L12.39 2.28A4.17 4.17 0 0 0 8.28 3L5.19 5.63a4.48 4.48 0 0 1 2.65-2.85l15.84-6.13a4.48 4.48 0 0 1 4.43.69L41.34 8A4.48 4.48 0 0 1 43 12.16l-2.65 16.79a4.48 4.48 0 0 1-2.81 3.49L21.7 38.57l-.21.06 9.84-8.3a4.17 4.17 0 0 0 1.42-3.92z" fill="#eb8244"/></g><path d="M20.84 27h2.78c-.23 0-3.08-5.16-3.35-5.5a4.28 4.28 0 0 0 1.88-1.38 3.79 3.79 0 0 0 .65-2.3 4.1 4.1 0 0 0-1.62-3.55A8.29 8.29 0 0 0 16.53 13H13c-.28 0 0 .52 0 .79V27h3V16h.9a4.23 4.23 0 0 1 2.11.4 1.44 1.44 0 0 1 .7 1.4 1.83 1.83 0 0 1-.76 1.61 5 5 0 0 1-2.48.58c-.44 0-.59.07-.41.49l1.1 1.69c.22.27 2.14 3.29 2.86 4.46a1.07 1.07 0 0 0 .82.37z" fill="#fff"/></svg>