<svg xmlns="http://www.w3.org/2000/svg" width="32" height="32" viewBox="0 0 32 32"><defs><clipPath id="a"><path d="M2.69 6.78l11-6.33a3.35 3.35 0 0 1 3.31 0l11.15 6.33A3.52 3.52 0 0 1 30 9.67v12.66a3.52 3.52 0 0 1-1.85 2.89L17.1 31.55a3.42 3.42 0 0 1-3.38 0l-11-6.33A3.38 3.38 0 0 1 1 22.33V9.67a3.36 3.36 0 0 1 1.69-2.89z" fill="#3dd1a5"/></clipPath><clipPath id="b"><path d="M2.69 6.78l11-6.33a3.35 3.35 0 0 1 3.31 0l11.15 6.33A3.52 3.52 0 0 1 30 9.67v12.66a3.52 3.52 0 0 1-1.85 2.89L17.1 31.55a3.42 3.42 0 0 1-3.38 0l-11-6.33A3.38 3.38 0 0 1 1 22.33V9.67a3.36 3.36 0 0 1 1.69-2.89z" fill="none"/></clipPath><radialGradient id="c" data-name="Dégradé sans nom 10" cx="16.09" cy="15.99" r="15.56" gradientTransform="matrix(.84 .54 -.86 1.36 16.34 -14.63)" gradientUnits="userSpaceOnUse"><stop offset=".37" stop-opacity="0"/><stop offset="1"/></radialGradient></defs><path d="M2.69 6.78l11-6.33a3.35 3.35 0 0 1 3.31 0l11.15 6.33A3.52 3.52 0 0 1 30 9.67v12.66a3.52 3.52 0 0 1-1.85 2.89L17.1 31.55a3.42 3.42 0 0 1-3.38 0l-11-6.33A3.38 3.38 0 0 1 1 22.33V9.67a3.36 3.36 0 0 1 1.69-2.89z" fill="#3dd1a5"/><g clip-path="url(#a)" fill="#3dd1a5"><path d="M15.87 30.32l10.58-8.52a3.59 3.59 0 0 0 1.29-3.34L25.66 5a3.58 3.58 0 0 0-.12-.51l-2.48-2.08a3.34 3.34 0 0 0-3.29-.59l-11.9 4.3a3.34 3.34 0 0 0-2.15 2.56L3.49 21.14a3.34 3.34 0 0 0 1.13 3.14l7.87 6.64a3.58 3.58 0 0 0 3.38-.6z"/><path d="M15.87 30.32l10.58-8.52a3.59 3.59 0 0 0 1.29-3.34L25.66 5a3.58 3.58 0 0 0-.12-.51l-2.48-2.08a3.34 3.34 0 0 0-3.29-.59l-11.9 4.3a3.34 3.34 0 0 0-2.15 2.56L3.49 21.14a3.34 3.34 0 0 0 1.13 3.14l7.87 6.64a3.58 3.58 0 0 0 3.38-.6z" opacity=".25"/><path d="M32.73 10.58l-7.19-6.07a3.58 3.58 0 0 1 .12.51l2.09 13.43a3.59 3.59 0 0 1-1.29 3.34l-10.59 8.53a3.58 3.58 0 0 1-3.38.6l1.8 1.52a3.34 3.34 0 0 0 3.29.59l11.9-4.3a3.34 3.34 0 0 0 2.15-2.55l2.23-12.46a3.34 3.34 0 0 0-1.13-3.14z"/><path d="M3.49 21.14L5.72 8.68a3.34 3.34 0 0 1 2.15-2.56l11.9-4.3a3.34 3.34 0 0 1 3.29.59l2.48 2.09a3.58 3.58 0 0 0-2.13-2.28l-12.67-4.9a3.58 3.58 0 0 0-3.54.55L-3.39 6.39a3.59 3.59 0 0 0-1.29 3.35l2.08 13.43A3.59 3.59 0 0 0-.35 26l12.67 4.91.16.05-7.86-6.68a3.34 3.34 0 0 1-1.13-3.14z"/></g><g clip-path="url(#b)"><path d="M15.87 30.32l10.58-8.52a3.59 3.59 0 0 0 1.29-3.34L25.66 5a3.58 3.58 0 0 0-.12-.51l-2.48-2.08a3.34 3.34 0 0 0-3.29-.59l-11.9 4.3a3.34 3.34 0 0 0-2.15 2.56L3.49 21.14a3.34 3.34 0 0 0 1.13 3.14l7.87 6.64a3.58 3.58 0 0 0 3.38-.6z" fill="#3dd1a5"/><path d="M15.87 30.32l10.58-8.52a3.59 3.59 0 0 0 1.29-3.34L25.66 5a3.58 3.58 0 0 0-.12-.51l-2.48-2.08a3.34 3.34 0 0 0-3.29-.59l-11.9 4.3a3.34 3.34 0 0 0-2.15 2.56L3.49 21.14a3.34 3.34 0 0 0 1.13 3.14l7.87 6.64a3.58 3.58 0 0 0 3.38-.6z" fill="url(#c)" opacity=".25"/><path d="M32.73 10.58l-7.19-6.07a3.58 3.58 0 0 1 .12.51l2.09 13.43a3.59 3.59 0 0 1-1.29 3.34l-10.59 8.53a3.58 3.58 0 0 1-3.38.6l1.8 1.52a3.34 3.34 0 0 0 3.29.59l11.9-4.3a3.34 3.34 0 0 0 2.15-2.55l2.23-12.46a3.34 3.34 0 0 0-1.13-3.14z" fill="#3dd1a5"/><path d="M3.49 21.14L5.72 8.68a3.34 3.34 0 0 1 2.15-2.56l11.9-4.3a3.34 3.34 0 0 1 3.29.59l2.48 2.09a3.58 3.58 0 0 0-2.13-2.28l-12.67-4.9a3.58 3.58 0 0 0-3.54.55L-3.39 6.39a3.59 3.59 0 0 0-1.29 3.35l2.08 13.43A3.59 3.59 0 0 0-.35 26l12.67 4.91.16.05-7.86-6.68a3.34 3.34 0 0 1-1.13-3.14z" fill="#3dd1a5"/></g><path d="M17.54 20.82h2.22c-.19-.39-2.46-4.14-2.68-4.41a3.44 3.44 0 0 0 1.5-1.11 3 3 0 0 0 .52-1.85 3 3 0 0 0-1.29-2.69 6.69 6.69 0 0 0-3.72-.86h-2.82a.31.31 0 0 0-.35.33v10.59h2.43V12h.87a3.71 3.71 0 0 1 1.77.33 1.19 1.19 0 0 1 .6 1.13 1.24 1.24 0 0 1-.59 1.15 4.14 4.14 0 0 1-2 .39c-.36 0-.48.18-.33.52l.88 1.41c.18.21 1.71 2.67 2.29 3.61a.86.86 0 0 0 .7.28z" fill="#fff"/></svg>